<?xml version="1.0" standalone="no"?><!DOCTYPE svg PUBLIC "-//W3C//DTD SVG 1.1//EN" "http://www.w3.org/Graphics/SVG/1.1/DTD/svg11.dtd"><svg t="1689928703040" class="icon" viewBox="0 0 1024 1024" version="1.1" xmlns="http://www.w3.org/2000/svg" p-id="4038" xmlns:xlink="http://www.w3.org/1999/xlink" width="200" height="200"><path d="M821.5 347c0.1-8.3-4.3-16.1-11.5-20.3L549.9 173.4c-11.5-7.5-25.4-10.5-37.9-10.5s-26.2 3-37.8 10.4l-260 148.6c-0.4 0.2-0.9 0.5-1.3 0.8l-1.2 0.9c-0.1 0-0.1 0.1-0.2 0.1-0.3 0.2-0.6 0.5-0.9 0.7-0.1 0.1-0.2 0.2-0.3 0.2l-0.9 0.9-0.1 0.1c-0.3 0.3-0.6 0.7-0.9 1-0.1 0.1-0.1 0.2-0.2 0.2-0.2 0.3-0.5 0.6-0.7 0.9-0.1 0.1-0.1 0.2-0.2 0.2-0.6 0.8-1.1 1.5-1.6 2.4 0 0 0 0.1-0.1 0.1-0.2 0.4-0.5 0.8-0.7 1.2-0.7 1.3-1.2 2.7-1.6 4.2-0.3 0.9-0.5 1.9-0.6 2.9v0.2c-0.1 0.4-0.1 0.8-0.1 1.2V654c0 12 3.9 23 9.1 31.8 4.9 8.2 12.2 16.3 21.4 21.2l241 143.7c21.5 14 49.7 14 71.3 0L791 707c9.2-4.9 16.5-13 21.4-21.2 5.2-8.7 9.1-19.8 9.1-31.8V347.7v-0.7zM775 504.2c-1.4 0.5-2.9 1.1-4.2 1.9L533 641.3V521.7c4.2-1.6 8.2-3.6 12.1-6.1L775 386.5v117.7zM498 213.4c0.5-0.3 0.9-0.5 1.4-0.8 2.3-1.5 6.8-3.1 12.7-3.1s10.4 1.5 12.7 3.1c0.4 0.2 0.7 0.5 1.1 0.7l225.8 133.1-95.4 53.6c-1.3-1.3-2.8-2.4-4.5-3.4L416.2 260.1l81.8-46.7z m-128.6 73.4l240.3 139.1-88.1 49.5-1.5 0.9c-6.1 4.1-14.6 4.1-20.7 0-0.4-0.2-0.7-0.5-1.1-0.7L272.1 342.4l97.3-55.6z m-114.5 379c-0.1 0-0.4-0.3-0.9-0.8-0.8-0.8-1.6-1.8-2.5-3.2-1.8-2.9-2.5-5.8-2.5-7.8V382.8l97.8 57.6v280.1l-90.5-53.9c-0.5-0.3-0.9-0.6-1.4-0.8z m138.4 82.4V467.9l80.8 47.6c3.9 2.5 8 4.6 12.3 6.2v282l-93.1-55.5z m379.2-86.5c-0.8 1.4-1.7 2.5-2.5 3.2-0.5 0.5-0.8 0.8-0.9 0.8-0.5 0.2-0.9 0.5-1.4 0.8L533 803.9v-109l242-137.7v96.7c0 2-0.8 4.9-2.5 7.8z" p-id="4039" fill="#707070"></path></svg>